<?xml version="1.0" standalone="no"?>
<!DOCTYPE svg PUBLIC "-//W3C//DTD SVG 20010904//EN"
 "http://www.w3.org/TR/2001/REC-SVG-20010904/DTD/svg10.dtd">
<svg version="1.0" xmlns="http://www.w3.org/2000/svg"
 viewBox="0 0 512.000000 512.000000"
 preserveAspectRatio="xMidYMid meet">

<g transform="translate(0.000000,512.000000) scale(0.100000,-0.100000)"
fill="#fff" stroke="none">
<path d="M2156 3777 c-111 -414 -147 -482 -263 -506 -87 -19 -458 -26 -625
-12 -361 30 -641 101 -679 173 -30 56 11 292 85 490 29 77 31 87 13 71 -80
-71 -375 -622 -542 -1013 -153 -359 -164 -417 -106 -605 129 -420 446 -1034
651 -1258 28 -31 56 -57 60 -57 4 0 -12 44 -36 98 -69 155 -96 259 -101 392
-5 138 6 165 84 200 133 61 296 77 414 40 127 -39 257 -141 356 -277 24 -35
47 -63 49 -63 2 0 18 19 34 43 54 74 149 164 209 195 260 139 514 -43 766
-548 l47 -94 33 79 c120 298 266 500 411 571 50 25 71 29 139 29 68 0 89 -4
138 -29 77 -37 172 -127 240 -226 l54 -80 37 55 c105 159 309 303 473 335 125
25 320 -8 380 -63 79 -72 49 -296 -74 -541 -24 -49 -42 -90 -40 -93 12 -11
188 195 262 307 185 280 392 725 470 1014 34 125 31 148 -41 365 -131 394
-343 852 -509 1101 -64 96 -172 222 -160 185 4 -11 25 -67 47 -125 88 -229
123 -447 80 -500 -21 -26 -172 -64 -435 -110 -290 -50 -426 -63 -652 -64 -172
-1 -220 2 -265 16 -99 31 -98 29 -189 413 -45 187 -85 348 -89 359 -5 13 -22
-43 -52 -179 -57 -252 -78 -281 -152 -216 -49 42 -71 51 -128 51 -58 0 -106
-18 -134 -49 -27 -30 -61 -27 -75 7 -6 15 -31 112 -55 216 -25 103 -46 190
-48 191 -2 2 -38 -128 -82 -288z"/>
</g>
</svg>
